HIERARCHY
ROOT Hips
{
  OFFSET -395.709 74.6333 870.142
  CHANNELS 6 Xposition Yposition Zposition Zrotation Xrotation Yrotation
  JOINT Spine
  {
    OFFSET 0 8 2.12548e-05
    CHANNELS 6 Xposition Yposition Zposition Zrotation Xrotation Yrotation
    JOINT Spine1
    {
      OFFSET 4.88459e-05 7.99985 0.04888
      CHANNELS 6 Xposition Yposition Zposition Zrotation Xrotation Yrotation
      JOINT Spine2
      {
        OFFSET -3.60652e-05 8 1.42106e-05
        CHANNELS 6 Xposition Yposition Zposition Zrotation Xrotation Yrotation
        JOINT Spine3
        {
          OFFSET 0 8 0
          CHANNELS 6 Xposition Yposition Zposition Zrotation Xrotation Yrotation
          JOINT Neck
          {
            OFFSET 0.000538132 17 0.000683383
            CHANNELS 6 Xposition Yposition Zposition Zrotation Xrotation Yrotation
            JOINT Head
            {
              OFFSET -1.87674e-05 10.8 -3.76918e-05
              CHANNELS 6 Xposition Yposition Zposition Zrotation Xrotation Yrotation
              End Site
              {
                OFFSET 0 20.25 0
              }
            }
          }
          JOINT LeftShoulder
          {
            OFFSET 5.00053 16.9998 0.00041573
            CHANNELS 6 Xposition Yposition Zposition Zrotation Xrotation Yrotation
            JOINT LeftShoulder2
            {
              OFFSET 6.45 0 0
              CHANNELS 6 Xposition Yposition Zposition Zrotation Xrotation Yrotation
              JOINT LeftArm
              {
                OFFSET 6.45 -0.000190308 -8.70132e-05
                CHANNELS 6 Xposition Yposition Zposition Zrotation Xrotation Yrotation
                JOINT LeftForeArm
                {
                  OFFSET -4.47976e-05 -32.4 -2.05835
                  CHANNELS 6 Xposition Yposition Zposition Zrotation Xrotation Yrotation
                  JOINT LeftHand
                  {
                    OFFSET 6.426e-05 -25.6525 2.00004
                    CHANNELS 6 Xposition Yposition Zposition Zrotation Xrotation Yrotation
                    JOINT LeftHandThumb1
                    {
                      OFFSET -0.499983 -1.49999 2.64991
                      CHANNELS 6 Xposition Yposition Zposition Zrotation Xrotation Yrotation
                      JOINT LeftHandThumb2
                      {
                        OFFSET -4.71469e-05 -3.79996 3.69997
                        CHANNELS 6 Xposition Yposition Zposition Zrotation Xrotation Yrotation
                        JOINT LeftHandThumb3
                        {
                          OFFSET -8.7552e-05 -2.99995 2.70002
                          CHANNELS 6 Xposition Yposition Zposition Zrotation Xrotation Yrotation
                          End Site
                          {
                            OFFSET 0 -2.29999 1.79997
                          }
                        }
                      }
                    }
                    JOINT LeftHandIndex
                    {
                      OFFSET -3.02086e-05 -1.90005 1.60002
                      CHANNELS 6 Xposition Yposition Zposition Zrotation Xrotation Yrotation
                      JOINT LeftHandIndex1
                      {
                        OFFSET 0 -8.30001 1.89995
                        CHANNELS 6 Xposition Yposition Zposition Zrotation Xrotation Yrotation
                        JOINT LeftHandIndex2
                        {
                          OFFSET 0 -4.5 -4.89226e-05
                          CHANNELS 6 Xposition Yposition Zposition Zrotation Xrotation Yrotation
                          JOINT LeftHandIndex3
                          {
                            OFFSET 0 -3.39997 -1.1535e-05
                            CHANNELS 6 Xposition Yposition Zposition Zrotation Xrotation Yrotation
                            End Site
                            {
                              OFFSET -5.44737e-05 -2.60007 5.97125e-05
                            }
                          }
                        }
                      }
                    }
                    JOINT LeftHandMiddle
                    {
                      OFFSET -0.250009 -2.19999 0.400057
                      CHANNELS 6 Xposition Yposition Zposition Zrotation Xrotation Yrotation
                      JOINT LeftHandMiddle1
                      {
                        OFFSET -3.20315e-05 -8.30006 1.01771
                        CHANNELS 6 Xposition Yposition Zposition Zrotation Xrotation Yrotation
                        JOINT LeftHandMiddle2
                        {
                          OFFSET -1.78791e-05 -4.64996 2.59546e-05
                          CHANNELS 6 Xposition Yposition Zposition Zrotation Xrotation Yrotation
                          JOINT LeftHandMiddle3
                          {
                            OFFSET 2.08122e-05 -3.30003 1.1614e-05
                            CHANNELS 6 Xposition Yposition Zposition Zrotation Xrotation Yrotation
                            End Site
                            {
                              OFFSET -2.21635e-05 -2.69996 0
                            }
                          }
                        }
                      }
                    }
                    JOINT LeftHandRing
                    {
                      OFFSET -0.500036 -2.05024 -0.800034
                      CHANNELS 6 Xposition Yposition Zposition Zrotation Xrotation Yrotation
                      JOINT LeftHandRing1
                      {
                        OFFSET 3.62639e-05 -7.80478 -0.200013
                        CHANNELS 6 Xposition Yposition Zposition Zrotation Xrotation Yrotation
                        JOINT LeftHandRing2
                        {
                          OFFSET -0.0360416 -3.79997 9.7584e-05
                          CHANNELS 6 Xposition Yposition Zposition Zrotation Xrotation Yrotation
                          JOINT LeftHandRing3
                          {
                            OFFSET 0.000277375 -3.39994 4.16933e-05
                            CHANNELS 6 Xposition Yposition Zposition Zrotation Xrotation Yrotation
                            End Site
                            {
                              OFFSET 3.83976e-05 -2.6 -3.30097e-05
                            }
                          }
                        }
                      }
                    }
                    JOINT LeftHandPinky
                    {
                      OFFSET -0.749975 -1.74998 -1.85
                      CHANNELS 6 Xposition Yposition Zposition Zrotation Xrotation Yrotation
                      JOINT LeftHandPinky1
                      {
                        OFFSET 4.31766e-05 -7.15007 -1.00004
                        CHANNELS 6 Xposition Yposition Zposition Zrotation Xrotation Yrotation
                        JOINT LeftHandPinky2
                        {
                          OFFSET 0.0514124 -2.99995 -6.6856e-05
                          CHANNELS 6 Xposition Yposition Zposition Zrotation Xrotation Yrotation
                          JOINT LeftHandPinky3
                          {
                            OFFSET -3.45768e-05 -2.35007 5.1305e-05
                            CHANNELS 6 Xposition Yposition Zposition Zrotation Xrotation Yrotation
                            End Site
                            {
                              OFFSET -2.31166e-05 -2.10003 0
                            }
                          }
                        }
                      }
                    }
                  }
                }
              }
            }
          }
          JOINT RightShoulder
          {
            OFFSET -4.99946 17.0002 0.000953555
            CHANNELS 6 Xposition Yposition Zposition Zrotation Xrotation Yrotation
            JOINT RightShoulder2
            {
              OFFSET -6.45 0 0
              CHANNELS 6 Xposition Yposition Zposition Zrotation Xrotation Yrotation
              JOINT RightArm
              {
                OFFSET -6.45 -0.000244798 -0.00033072
                CHANNELS 6 Xposition Yposition Zposition Zrotation Xrotation Yrotation
                JOINT RightForeArm
                {
                  OFFSET 1.4958e-05 -32.4 -2.00001
                  CHANNELS 6 Xposition Yposition Zposition Zrotation Xrotation Yrotation
                  JOINT RightHand
                  {
                    OFFSET 0.0663891 -25.6499 2.00007
                    CHANNELS 6 Xposition Yposition Zposition Zrotation Xrotation Yrotation
                    JOINT RightHandThumb1
                    {
                      OFFSET 0.500009 -1.50003 2.65002
                      CHANNELS 6 Xposition Yposition Zposition Zrotation Xrotation Yrotation
                      JOINT RightHandThumb2
                      {
                        OFFSET 0.0507751 -3.79999 3.70006
                        CHANNELS 6 Xposition Yposition Zposition Zrotation Xrotation Yrotation
                        JOINT RightHandThumb3
                        {
                          OFFSET 0.0125164 -3 2.69999
                          CHANNELS 6 Xposition Yposition Zposition Zrotation Xrotation Yrotation
                          End Site
                          {
                            OFFSET -8.6186e-05 -2.29998 1.80001
                          }
                        }
                      }
                    }
                    JOINT RightHandIndex
                    {
                      OFFSET -2.00674e-05 -1.89995 1.60005
                      CHANNELS 6 Xposition Yposition Zposition Zrotation Xrotation Yrotation
                      JOINT RightHandIndex1
                      {
                        OFFSET 4.73338e-05 -8.30005 1.89999
                        CHANNELS 6 Xposition Yposition Zposition Zrotation Xrotation Yrotation
                        JOINT RightHandIndex2
                        {
                          OFFSET -3.5353e-05 -4.49998 0.02735
                          CHANNELS 6 Xposition Yposition Zposition Zrotation Xrotation Yrotation
                          JOINT RightHandIndex3
                          {
                            OFFSET -2.7149e-05 -3.40001 -5.39004e-05
                            CHANNELS 6 Xposition Yposition Zposition Zrotation Xrotation Yrotation
                            End Site
                            {
                              OFFSET -3.95308e-05 -2.59998 8.15106e-05
                            }
                          }
                        }
                      }
                    }
                    JOINT RightHandMiddle
                    {
                      OFFSET 0.250059 -2.20002 0.400016
                      CHANNELS 6 Xposition Yposition Zposition Zrotation Xrotation Yrotation
                      JOINT RightHandMiddle1
                      {
                        OFFSET 0 -8.3 1.0033
                        CHANNELS 6 Xposition Yposition Zposition Zrotation Xrotation Yrotation
                        JOINT RightHandMiddle2
                        {
                          OFFSET 4.29097e-05 -4.64995 -6.77142e-05
                          CHANNELS 6 Xposition Yposition Zposition Zrotation Xrotation Yrotation
                          JOINT RightHandMiddle3
                          {
                            OFFSET -5.4534e-05 -3.25196 4.77489e-05
                            CHANNELS 6 Xposition Yposition Zposition Zrotation Xrotation Yrotation
                            End Site
                            {
                              OFFSET -3.9086e-05 -2.69994 -4.15298e-05
                            }
                          }
                        }
                      }
                    }
                    JOINT RightHandRing
                    {
                      OFFSET 0.499924 -2.14995 -0.80001
                      CHANNELS 6 Xposition Yposition Zposition Zrotation Xrotation Yrotation
                      JOINT RightHandRing1
                      {
                        OFFSET 0 -7.74998 -0.199948
                        CHANNELS 6 Xposition Yposition Zposition Zrotation Xrotation Yrotation
                        JOINT RightHandRing2
                        {
                          OFFSET 4.18305e-05 -3.79997 0
                          CHANNELS 6 Xposition Yposition Zposition Zrotation Xrotation Yrotation
                          JOINT RightHandRing3
                          {
                            OFFSET -6.42455e-05 -3.40005 -1.37094e-05
                            CHANNELS 6 Xposition Yposition Zposition Zrotation Xrotation Yrotation
                            End Site
                            {
                              OFFSET 5.75047e-05 -2.60002 8.52077e-05
                            }
                          }
                        }
                      }
                    }
                    JOINT RightHandPinky
                    {
                      OFFSET 0.749975 -1.74993 -1.83909
                      CHANNELS 6 Xposition Yposition Zposition Zrotation Xrotation Yrotation
                      JOINT RightHandPinky1
                      {
                        OFFSET 6.3122e-05 -7.15008 -0.999996
                        CHANNELS 6 Xposition Yposition Zposition Zrotation Xrotation Yrotation
                        JOINT RightHandPinky2
                        {
                          OFFSET 4.00173e-05 -3.00004 7.54001e-05
                          CHANNELS 6 Xposition Yposition Zposition Zrotation Xrotation Yrotation
                          JOINT RightHandPinky3
                          {
                            OFFSET 0 -2.34997 -6.24902e-05
                            CHANNELS 6 Xposition Yposition Zposition Zrotation Xrotation Yrotation
                            End Site
                            {
                              OFFSET 2.73745e-05 -2.10572 0.0133882
                            }
                          }
                        }
                      }
                    }
                  }
                }
              }
            }
          }
        }
      }
    }
  }
  JOINT LeftUpLeg
  {
    OFFSET 7.99999 0 1.89838e-05
    CHANNELS 6 Xposition Yposition Zposition Zrotation Xrotation Yrotation
    JOINT LeftLeg
    {
      OFFSET -4.64685e-05 -45 -1.00006
      CHANNELS 6 Xposition Yposition Zposition Zrotation Xrotation Yrotation
      JOINT LeftFoot
      {
        OFFSET -5.58222e-05 -41 -1.99998
        CHANNELS 6 Xposition Yposition Zposition Zrotation Xrotation Yrotation
        JOINT LeftToeBase
        {
          OFFSET -2.34855e-05 -7.50001 12.4999
          CHANNELS 6 Xposition Yposition Zposition Zrotation Xrotation Yrotation
          JOINT LeftFootToe
          {
            OFFSET 0 0 4
            CHANNELS 6 Xposition Yposition Zposition Zrotation Xrotation Yrotation
            End Site
            {
              OFFSET 0 0 0
            }
          }
        }
      }
    }
  }
  JOINT RightUpLeg
  {
    OFFSET -7.99999 0 -1.89838e-05
    CHANNELS 6 Xposition Yposition Zposition Zrotation Xrotation Yrotation
    JOINT RightLeg
    {
      OFFSET 0 -45 -1.00003
      CHANNELS 6 Xposition Yposition Zposition Zrotation Xrotation Yrotation
      JOINT RightFoot
      {
        OFFSET -7.71619e-05 -41 -1.99995
        CHANNELS 6 Xposition Yposition Zposition Zrotation Xrotation Yrotation
        JOINT RightToeBase
        {
          OFFSET 3.73751e-05 -7.5 12.5
          CHANNELS 6 Xposition Yposition Zposition Zrotation Xrotation Yrotation
          JOINT RightFootToe
          {
            OFFSET 0 0 4
            CHANNELS 6 Xposition Yposition Zposition Zrotation Xrotation Yrotation
            End Site
            {
              OFFSET 0 0 0
            }
          }
        }
      }
    }
  }
}
MOTION
Frames:	3
Frame Time:	0.0111111
-391.958 74.0538 872.542 -2.10522 4.66473 -176.552 0 8 1.13687e-13 5.5637 12.0872 -5.11986 -5.68434e-14 8 1.13687e-13 2.31751 7.74747 -2.37015 0 8 0 1.11747 3.88974 -1.14468 0 8 0 1.11499 3.87808 -1.14134 0 17 0 1.84483 -4.35609 -5.01478 2.84217e-14 10.8 1.13687e-13 3.71383 -10.4306 -11.5899 5 17 0 4.36251 -4.19783 -1.58956 6.45 0 0 -1.79427 0.318701 -0.694484 6.45 0 -1.13687e-13 59.8223 -21.6454 29.9478 0 -32.4 -2 -24.2272 -68.4541 -18.6298 0 -25.65 2 14.6816 -16.4436 -31.6252 -0.5 -1.5 2.65 -24.909 13.7676 18.314 -5.68434e-14 -3.8 3.7 -0.139234 20.7562 -0.643985 2.84217e-14 -3 2.7 0.00133814 -7.18338 -0.00147095 -5.68434e-14 -1.9 1.6 -2.14325e-06 8.79866e-06 1.25316e-05 0 -8.3 1.9 -19.2107 20.8164 4.00339 0 -4.5 0 -25.9063 -0.0798489 -0.0345106 0 -3.4 0 -19.0094 -0.0396705 -0.0359244 -0.25 -2.2 0.4 -2.14325e-06 8.79866e-06 1.25316e-05 5.68434e-14 -8.3 1 -40.4814 30.9596 14.3851 0 -4.65 0 -18.2947 -0.0129405 0.00217275 0 -3.3 0 -12.4649 -0.00897541 -0.00228282 -0.5 -2.15 -0.8 -2.14325e-06 8.79866e-06 1.25316e-05 -5.68434e-14 -7.75 -0.2 -82.6272 6.43961 14.3521 2.27374e-13 -3.8 0 -16.2607 0.000578282 -0.00461552 0 -3.4 -1.13687e-13 -12.145 -0.00828199 -0.00216134 -0.75 -1.75 -1.85 -2.14325e-06 8.79866e-06 1.25316e-05 -5.68434e-14 -7.15 -1 -79.8676 10.8325 19.0172 0 -3 -1.13687e-13 -6.70055 0.000446083 -7.6661e-05 -1.13687e-13 -2.35 -1.13687e-13 -6.61359e-06 0.000149495 -0.000280505 -5 17 0 10.1973 -6.4233 -2.33089 -6.45 5.68434e-14 0 -2.38729 1.41686 -3.8246 -6.45 -5.68434e-14 0 -55.5843 -23.5819 -68.2125 0 -32.4 -2 -6.05646 -19.511 -34.3534 0 -25.65 2 -7.18188 -3.03005 -23.9363 0.5 -1.5 2.65 -2.65978 16.0991 23.3885 1.13687e-13 -3.8 3.7 0.254931 34.0316 0.0571614 0 -3 2.7 0.0783934 24.5973 -0.00947651 1.13687e-13 -1.9 1.6 -5.7088e-05 2.65228e-05 -2.38354e-05 -1.13687e-13 -8.3 1.9 5.49858 7.58223 -0.389063 0 -4.5 5.68434e-14 26.5443 0.034245 -0.0236688 0 -3.4 0 18.7885 0.0163961 -0.0212268 0.25 -2.2 0.4 -5.7088e-05 2.65228e-05 -2.38354e-05 0 -8.3 1 4.62873 7.23338 -0.303447 0 -4.65 5.68434e-14 2.79224 0.000916413 -0.00148087 0 -3.3 -5.68434e-14 0.0885919 0.000920722 -0.00139329 0.5 -2.15 -0.8 -5.7088e-05 2.65228e-05 -2.38354e-05 -1.13687e-13 -7.75 -0.2 3.18026 6.88744 -0.169974 0 -3.8 0 3.49799 0.128347 0.0410249 -1.13687e-13 -3.4 0 2.97108 0.111155 0.0293612 0.75 -1.75 -1.85 -5.7088e-05 2.65228e-05 -2.38354e-05 1.13687e-13 -7.15 -1 2.46947 6.58931 -0.103601 1.13687e-13 -3 -5.68434e-14 21.1444 0.689454 0.18597 0 -2.35 5.68434e-14 15.3528 0.495326 0.00439961 8 2.84217e-14 -1.13687e-13 23.71 -59.3113 16.265 1.13687e-13 -45 -1 2.10409 52.2655 -10.0669 0 -41 -2 -14.0761 11.4028 12.0441 0 -7.5 12.5 4.2453e-06 -2.45384e-06 -9.40556e-06 -1.13687e-13 0 4 -7.81256 -9.24254 -19.0596 -8 0 0 1.90232 -59.8143 -11.293 -5.68434e-14 -45 -1 -12.0437 74.017 23.7346 1.13687e-13 -41 -2 -14.2086 18.648 3.40744 0 -7.5 12.5 -2.68019e-07 -26.4086 -4.10952e-05 1.13687e-13 0 4 14.6019 25.5048 -9.9928 
-391.975 74.1015 872.407 -2.02518 4.57351 -176.808 5.68434e-14 8 0 5.49895 12.0226 -5.18159 0 8 0 2.29267 7.74068 -2.34605 0 8 0 1.10554 3.88739 -1.13309 0 8 0 1.10289 3.87746 -1.12994 0 17 -1.13687e-13 1.79837 -4.34144 -4.92409 0 10.8 -1.13687e-13 3.61795 -10.3858 -11.3814 5 17 0 4.37101 -4.15368 -1.63544 6.45 0 0 -1.8052 0.327652 -0.700991 6.45 0 0 59.9161 -21.408 30.0359 0 -32.4 -2 -25.1816 -69.0593 -19.8457 -5.68434e-14 -25.65 2 15.0466 -16.2337 -32.4263 -0.5 -1.5 2.65 -23.6748 14.9425 18.968 2.84217e-14 -3.8 3.7 -0.199272 19.7928 -0.591958 0 -3 2.7 -0.011699 -7.2944 0.0266853 0 -1.9 1.6 -2.14325e-06 8.79866e-06 1.25316e-05 -5.68434e-14 -8.3 1.9 -21.0223 21.0129 4.42097 0 -4.5 -1.13687e-13 -24.2915 -0.0580724 -0.0195356 -5.68434e-14 -3.4 1.13687e-13 -18.0247 -0.0308457 -0.022525 -0.25 -2.2 0.4 -2.14325e-06 8.79866e-06 1.25316e-05 0 -8.3 1 -40.723 30.5384 14.233 5.68434e-14 -4.65 0 -18.4581 0.00379329 -8.01582e-05 2.84217e-14 -3.3 0 -12.5685 0.00256034 -0.000845161 -0.5 -2.15 -0.8 -2.14325e-06 8.79866e-06 1.25316e-05 -5.68434e-14 -7.75 -0.2 -81.2239 6.87539 14.0658 0 -3.8 -1.13687e-13 -16.6472 0.00071455 -6.87841e-05 0 -3.4 0 -12.3897 -0.00842293 0.000944268 -0.75 -1.75 -1.85 -2.14325e-06 8.79866e-06 1.25316e-05 -5.68434e-14 -7.15 -1 -77.8824 11.9721 18.9176 -5.68434e-14 -3 0 -6.70055 0.000551555 -7.6661e-05 0 -2.35 -1.13687e-13 0.00248166 0.000239859 -0.000280505 -5 17 0 10.2299 -6.48655 -2.2665 -6.45 0 1.13687e-13 -2.38809 1.41745 -3.82824 -6.45 0 0 -55.2619 -23.6693 -68.2189 0 -32.4 -2 -6.13183 -20.2678 -34.783 1.13687e-13 -25.65 2 -5.87599 -3.62307 -24.6681 0.5 -1.5 2.65 -4.91434 16.0413 24.9261 0 -3.8 3.7 0.252742 34.5085 0.0574865 -1.13687e-13 -3 2.7 0.0783934 24.5973 -0.00947651 0 -1.9 1.6 -5.7088e-05 2.65228e-05 -2.38354e-05 0 -8.3 1.9 5.03074 7.83657 -0.363365 0 -4.5 0 26.0726 0.0331393 -0.0191458 0 -3.4 -5.68434e-14 18.4959 0.0159456 -0.0172203 0.25 -2.2 0.4 -5.7088e-05 2.65228e-05 -2.38354e-05 1.13687e-13 -8.3 1 4.51253 7.72326 -0.31957 1.13687e-13 -4.65 5.68434e-14 2.79222 -0.00240967 0.00109793 0 -3.3 5.68434e-14 -0.0172526 -0.00235523 0.00106737 0.5 -2.15 -0.8 -5.7088e-05 2.65228e-05 -2.38354e-05 0 -7.75 -0.2 3.78527 7.93349 -0.266536 0 -3.8 0 1.78088 0.0962625 0.048194 0 -3.4 0 1.56614 0.0865154 0.0383518 0.75 -1.75 -1.85 -5.7088e-05 2.65228e-05 -2.38354e-05 0 -7.15 -1 3.46639 7.88569 -0.239198 -1.13687e-13 -3 0 14.7806 0.648191 0.247691 0 -2.35 5.68434e-14 10.8919 0.491353 0.0647075 8 -2.84217e-14 0 23.6115 -59.3595 16.0906 0 -45 -1 2.16071 52.4639 -10.2468 0 -41 -2 -14.1194 11.4216 12.5762 0 -7.5 12.5 4.2453e-06 -2.45384e-06 -9.40556e-06 0 0 4 -7.86813 -9.50541 -19.1858 -8 0 -1.13687e-13 2.34895 -59.8008 -10.8114 5.68434e-14 -45 -1 -11.8771 74.0288 23.5137 -1.13687e-13 -41 -2 -14.2531 18.5225 3.46988 0 -7.5 12.5 -2.50906e-07 -26.3872 -4.10875e-05 0 2.22045e-16 4 14.5334 25.4848 -9.92474 
-392 74.1492 872.276 -1.94212 4.48169 -177.033 -5.68434e-14 8 0 5.4407 11.9521 -5.2517 -5.68434e-14 8 0 2.27187 7.72958 -2.32527 5.68434e-14 8 -1.13687e-13 1.09556 3.88182 -1.12312 0 8 1.13687e-13 1.09363 3.87146 -1.11987 5.68434e-14 17 0 1.75598 -4.32801 -4.83524 -5.68434e-14 10.8 0 3.53111 -10.3451 -11.1767 5 17 0 4.38945 -4.11213 -1.68294 6.45 -5.68434e-14 0 -1.81462 0.336417 -0.707686 6.45 5.68434e-14 1.13687e-13 59.8791 -21.1592 30.1243 5.68434e-14 -32.4 -2 -26.383 -69.72 -21.3247 0 -25.65 2 15.7772 -15.8424 -33.3678 -0.5 -1.5 2.65 -22.4376 16.0877 19.5189 0 -3.8 3.7 -0.23529 18.7666 -0.525614 -2.84217e-14 -3 2.7 -0.0305294 -7.04107 0.0718822 -5.68434e-14 -1.9 1.6 -2.14325e-06 8.79866e-06 1.25316e-05 -5.68434e-14 -8.3 1.9 -22.5839 21.122 4.78186 -1.42109e-14 -4.5 -1.13687e-13 -23.492 -0.0354204 -0.00889967 0 -3.4 0 -17.5317 -0.0195034 -0.0116289 -0.25 -2.2 0.4 -2.14325e-06 8.79866e-06 1.25316e-05 0 -8.3 1 -40.6522 30.0646 13.9302 -2.84217e-14 -4.65 0 -19.1798 0.0141526 -0.00268112 0 -3.3 -1.13687e-13 -13.0503 0.00946892 -0.000711864 -0.5 -2.15 -0.8 -2.14325e-06 8.79866e-06 1.25316e-05 -5.68434e-14 -7.75 -0.2 -79.5246 7.31545 13.7073 -1.13687e-13 -3.8 -1.13687e-13 -17.3335 0.000567629 0.0179834 0 -3.4 0 -12.8326 -0.0103919 0.0123433 -0.75 -1.75 -1.85 -2.14325e-06 8.79866e-06 1.25316e-05 -5.68434e-14 -7.15 -1 -75.6385 13.202 18.7964 5.68434e-14 -3 0 -6.70055 0.00214289 -7.6661e-05 1.13687e-13 -2.35 0 0.0395933 0.00165906 -0.000280505 -5 17 0 10.2604 -6.56308 -2.18787 -6.45 0 0 -2.38563 1.41824 -3.8258 -6.45 0 -1.13687e-13 -54.9653 -23.7257 -68.1794 0 -32.4 -2 -6.19561 -21.0141 -35.224 0 -25.65 2 -4.21775 -4.21689 -25.611 0.5 -1.5 2.65 -7.47201 15.6651 26.6113 0 -3.8 3.7 0.250675 35.142 0.0579303 0 -3 2.7 0.0783934 24.5973 -0.00947651 0 -1.9 1.6 -5.7088e-05 2.65228e-05 -2.38354e-05 0 -8.3 1.9 4.45249 8.16429 -0.330338 0 -4.5 -5.68434e-14 25.6649 0.0237444 -0.0120079 0 -3.4 -5.68434e-14 18.2434 0.0105593 -0.0110957 0.25 -2.2 0.4 -5.7088e-05 2.65228e-05 -2.38354e-05 0 -8.3 1 4.41158 8.31865 -0.346187 1.13687e-13 -4.65 0 2.79211 -0.00418369 0.00199308 -1.13687e-13 -3.3 0 -0.0349417 -0.00412417 0.00209863 0.5 -2.15 -0.8 -5.7088e-05 2.65228e-05 -2.38354e-05 0 -7.75 -0.2 4.65179 9.17648 -0.42197 0 -3.8 0 0.810975 0.0569064 0.0336547 0 -3.4 0 0.729688 0.052062 0.0274868 0.75 -1.75 -1.85 -5.7088e-05 2.65228e-05 -2.38354e-05 0 -7.15 -1 4.87206 9.40518 -0.467064 -1.13687e-13 -3 0 9.30368 0.45755 0.205564 -2.27374e-13 -2.35 0 7.0208 0.357585 0.0778696 8 0 0 23.5303 -59.4224 15.972 0 -45 -1 2.23354 52.6838 -10.4347 0 -41 -2 -14.1235 11.3358 13.1219 0 -7.5 12.5 4.2453e-06 -2.45384e-06 -9.40556e-06 0 0 4 -7.87573 -9.68529 -19.2127 -8 0 0 2.70544 -59.7999 -10.4101 5.68434e-14 -45 -1 -11.7483 74.0412 23.3456 1.13687e-13 -41 -2 -14.3228 18.4093 3.6667 0 -7.5 12.5 -2.23838e-07 -26.3534 -4.10755e-05 0 2.22045e-16 4 14.5003 25.3612 -9.92795 
